<?xml version="1.0" encoding="UTF-8"?>
<svg id="Layer_2" data-name="Layer 2" xmlns="http://www.w3.org/2000/svg" viewBox="0 0 752.59 71.14">
  <g id="Camada_1" data-name="Camada 1">
    <g>
      <g>
        <rect x="96.25" y="35.98" width="16.09" height="33.99"/>
        <rect x="69.9" y="35.98" width="15.19" height="33.99"/>
        <rect x="26.54" y="35.98" width="11.7" height="33.99"/>
        <rect y="35.98" width="17.43" height="33.99"/>
        <rect x="108.62" width="3.73" height="34.02"/>
        <rect x="61.57" width="15.76" height="34.02"/>
        <rect x="33.81" width="18" height="34.02"/>
        <rect width="13.06" height="34.02"/>
      </g>
      <path d="M184.47,39.6c0,3.58-.43,6.8-1.3,9.66-.86,2.86-2.13,5.28-3.8,7.26-1.67,1.99-3.73,3.52-6.18,4.58-2.45,1.06-5.28,1.59-8.49,1.59-3.5,0-6.48-.61-8.92-1.83-2.45-1.22-4.45-2.94-5.99-5.17-1.54-2.22-2.67-4.83-3.37-7.83-.7-2.99-1.05-6.24-1.05-9.75V5.57h-9.14v35.09c0,2.87.29,5.76.86,8.65.58,2.89,1.5,5.63,2.78,8.21,1.28,2.58,2.95,4.87,5.03,6.88,2.08,2.01,4.61,3.6,7.59,4.78,2.99,1.18,6.47,1.77,10.47,1.77,5.44,0,10.25-1.14,14.45-3.43,3.17-1.72,5.83-4.07,7.97-7.03v8.86h8.15V5.57h-9.08v34.02Z"/>
      <path d="M252.34,37.53c-3.5-1.65-8.32-3.23-14.45-4.73-5.23-1.26-9.25-2.42-12.08-3.48-2.82-1.06-4.77-2.19-5.84-3.4-1.07-1.2-1.61-2.65-1.61-4.34,0-3.03,1.48-5.47,4.45-7.3,2.96-1.83,6.81-2.69,11.55-2.57,5.02.08,9.17,1.21,12.44,3.4,3.27,2.18,5.22,5.15,5.84,8.89l9.26-1.6c-.46-3.7-1.89-6.95-4.32-9.75-2.43-2.8-5.63-4.97-9.6-6.53-3.97-1.56-8.47-2.33-13.49-2.33s-9.43.76-13.22,2.28c-3.79,1.52-6.75,3.64-8.89,6.38-2.14,2.74-3.21,5.92-3.21,9.54,0,2.99.72,5.52,2.16,7.59,1.44,2.07,3.87,3.89,7.29,5.47,3.42,1.58,8.15,3.15,14.21,4.72,5.64,1.46,9.88,2.72,12.72,3.78,2.84,1.06,4.72,2.21,5.65,3.45.93,1.24,1.39,2.85,1.39,4.81,0,3.51-1.46,6.27-4.38,8.3-2.93,2.03-6.92,3.04-11.98,3.04s-9.54-1.07-13.06-3.22c-3.52-2.15-5.77-5.03-6.76-8.65l-9.26,1.48c1.15,5.75,4.25,10.24,9.29,13.47,5.04,3.23,11.48,4.84,19.3,4.84s14.63-1.72,19.3-5.17c4.67-3.44,7.01-8.18,7.01-14.21,0-3.31-.74-6.08-2.22-8.33-1.48-2.24-3.97-4.19-7.47-5.85Z"/>
      <path d="M320.4,8.14c-4.65-2.89-10.27-4.34-16.86-4.34s-11.99,1.38-16.71,4.13c-4.71,2.76-8.37,6.68-10.96,11.76-2.59,5.08-3.89,11.1-3.89,18.08s1.31,12.6,3.95,17.6c2.63,5,6.33,8.88,11.09,11.64,4.75,2.76,10.39,4.13,16.89,4.13s12.26-1.53,17.39-4.58c5.13-3.05,9.01-7.35,11.64-12.91l-8.46-3.13c-2.06,3.98-4.87,7.02-8.43,9.13-3.56,2.11-7.73,3.16-12.51,3.16-7,0-12.4-2.22-16.21-6.65-3.41-3.97-5.29-9.4-5.64-16.27h52.54c.21-7.48-.89-13.92-3.27-19.32-2.39-5.39-5.91-9.54-10.56-12.43ZM287.33,18.45c3.81-4.45,9.3-6.67,16.46-6.67s12.03,2.11,15.59,6.32c2.93,3.47,4.69,8.33,5.32,14.53h-42.82c.62-5.91,2.43-10.65,5.45-14.18Z"/>
      <rect x="347.15" y="59.27" width="10.56" height="10.1"/>
      <rect x="377.96" y="5.57" width="5.19" height="63.8"/>
      <g>
        <path d="M437.85,3.8c-4.25,0-8.03.96-11.34,2.87s-5.88,4.6-7.71,8.06c-.03.06-.05.11-.08.17-.28-.61-.58-1.21-.92-1.77-1.95-3.19-4.5-5.54-7.65-7.06-3.15-1.52-6.52-2.27-10.1-2.27-4.21,0-7.95.92-11.19,2.75-2.58,1.45-4.71,3.35-6.41,5.67v-6.65h-4.61v63.8h4.96V26.95c0-5.67,1.54-10.2,4.61-13.59,3.07-3.39,7.09-5.08,12.05-5.08s8.79,1.62,11.84,4.84c3.05,3.23,4.58,7.6,4.58,13.11l-.12,43.12h4.84l.11-42.42h0c0-4.73.88-8.45,2.63-11.17,1.75-2.72,3.92-4.65,6.5-5.79,2.58-1.14,5.13-1.71,7.65-1.71,4.57,0,8.41,1.53,11.52,4.58,3.11,3.05,4.67,7.24,4.67,12.55l-.12,43.95h4.96l.12-44.31c0-6.62-1.96-11.81-5.88-15.6-3.92-3.78-8.89-5.67-14.92-5.67Z"/>
        <path d="M515.64,8.08c-4.33-2.86-9.67-4.28-16.01-4.28s-11.45,1.4-15.8,4.19c-4.35,2.8-7.67,6.71-9.95,11.76-2.28,5.04-3.43,10.91-3.43,17.6s1.12,12.46,3.37,17.55c2.24,5.08,5.53,9.06,9.87,11.93,4.33,2.87,9.65,4.31,15.95,4.31s11.57-1.42,15.92-4.25c4.35-2.83,7.65-6.78,9.89-11.84,2.25-5.06,3.37-10.96,3.37-17.69s-1.11-12.38-3.34-17.43c-2.23-5.04-5.5-8.99-9.84-11.84ZM517.59,58.17c-3.94,5.34-9.92,8-17.96,8s-13.77-2.64-17.81-7.92c-4.04-5.28-6.06-12.25-6.06-20.91,0-5.59.87-10.53,2.6-14.83,1.73-4.29,4.36-7.66,7.89-10.1,3.52-2.44,7.98-3.66,13.38-3.66,7.99,0,13.97,2.59,17.93,7.77,3.96,5.18,5.94,12.12,5.94,20.82s-1.97,15.49-5.91,20.82Z"/>
        <path d="M593.44,38.89h3.07c0-7.4-1.15-13.72-3.46-18.96-2.3-5.24-5.62-9.23-9.95-11.99-4.33-2.76-9.55-4.14-15.65-4.14s-11.27,1.35-15.63,4.05c-4.35,2.7-7.7,6.57-10.04,11.61-2.34,5.04-3.51,11.05-3.51,18.02s1.18,12.92,3.54,17.96c2.36,5.04,5.72,8.92,10.07,11.64,4.35,2.72,9.54,4.08,15.57,4.08s11.72-1.48,16.48-4.43c4.76-2.95,8.45-7.15,11.05-12.58l-4.14-2.36c-2.36,4.65-5.53,8.21-9.51,10.69-3.98,2.48-8.61,3.72-13.88,3.72-7.56,0-13.43-2.51-17.6-7.53-3.95-4.75-6.01-11.36-6.22-19.76h49.82ZM549.85,16.29c4.17-5.02,10.04-7.53,17.6-7.53s13.2,2.45,17.28,7.36c3.57,4.3,5.67,10.23,6.29,17.81h-47.32c.48-7.4,2.53-13.29,6.14-17.63Z"/>
        <path d="M667.76,3.8c-4.25,0-8.03.96-11.34,2.87s-5.88,4.6-7.71,8.06c-.03.06-.05.11-.08.17-.28-.61-.58-1.21-.92-1.77-1.95-3.19-4.5-5.54-7.65-7.06-3.15-1.52-6.52-2.27-10.1-2.27-4.21,0-7.95.92-11.19,2.75-2.58,1.45-4.71,3.35-6.41,5.67v-6.65h-4.61v63.8h4.96V26.95c0-5.67,1.54-10.2,4.61-13.59,3.07-3.39,7.09-5.08,12.05-5.08s8.79,1.62,11.84,4.84c3.05,3.23,4.58,7.6,4.58,13.11l-.12,43.12h4.84l.11-42.42h0c0-4.73.88-8.45,2.63-11.17,1.75-2.72,3.92-4.65,6.5-5.79,2.58-1.14,5.13-1.71,7.65-1.71,4.57,0,8.41,1.53,11.52,4.58,3.11,3.05,4.67,7.24,4.67,12.55l-.12,43.95h4.96l.12-44.31c0-6.62-1.96-11.81-5.88-15.6-3.92-3.78-8.89-5.67-14.92-5.67Z"/>
        <path d="M752.23,22.88c-.24-2.25-.63-4.15-1.18-5.73-1.42-4.1-4.1-7.34-8.03-9.75-3.94-2.4-8.86-3.6-14.77-3.6-6.73,0-12.3,1.54-16.69,4.61-4.39,3.07-7.3,7.56-8.71,13.47l5.43,1.42c1.3-4.92,3.57-8.57,6.82-10.96,3.25-2.38,7.55-3.57,12.91-3.57,7.4,0,12.57,1.84,15.51,5.52,2.81,3.52,4.16,8.82,4.11,15.85-1.63.2-3.71.44-6.26.72-3.58.39-7.49.88-11.73,1.45-4.23.57-8.2,1.23-11.9,1.98-3.03.63-5.87,1.65-8.51,3.07-2.64,1.42-4.78,3.36-6.41,5.82-1.63,2.46-2.45,5.56-2.45,9.3,0,3.31.81,6.38,2.42,9.22,1.61,2.84,4.06,5.12,7.33,6.85,3.27,1.73,7.38,2.6,12.35,2.6,6.81,0,12.74-1.67,17.78-5.02,3.3-2.19,5.87-4.98,7.74-8.34v11.59h4.61V29.43c0-2.13-.12-4.31-.35-6.56ZM747.15,45.27c-.59,4.37-1.98,8.12-4.17,11.25-2.19,3.13-5.04,5.52-8.57,7.18-3.53,1.65-7.59,2.48-12.2,2.48-4.21,0-7.53-.71-9.95-2.13s-4.15-3.17-5.17-5.26c-1.02-2.09-1.54-4.15-1.54-6.2,0-2.91.7-5.3,2.1-7.15,1.4-1.85,3.12-3.29,5.17-4.31,2.05-1.02,4.04-1.77,5.97-2.25,3.31-.83,7.01-1.51,11.11-2.04,4.1-.53,7.98-.96,11.67-1.3,2.34-.21,4.36-.4,6.06-.55v3.18c0,2.52-.16,4.88-.47,7.09Z"/>
      </g>
    </g>
  </g>
</svg>